<mxfile host="65bd71144e">
    <diagram id="Z_EKowuD_myDsPZ02C6S" name="PÃ¡gina-1">
        <mxGraphModel dx="891" dy="475" grid="1" gridSize="10" guides="1" tooltips="1" connect="1" arrows="1" fold="1" page="1" pageScale="1" pageWidth="1169" pageHeight="1654" math="0" shadow="0">
            <root>
                <mxCell id="0"/>
                <mxCell id="1" parent="0"/>
                <mxCell id="2" value="Cliente" style="shape=umlActor;verticalLabelPosition=bottom;verticalAlign=top;html=1;fillColor=#f8cecc;strokeColor=#b85450;gradientColor=#ea6b66;" vertex="1" parent="1">
                    <mxGeometry x="120" y="780" width="30" height="60" as="geometry"/>
                </mxCell>
                <mxCell id="3" value="" style="rounded=0;whiteSpace=wrap;html=1;fillColor=#0050ef;strokeColor=#001DBC;fontColor=#ffffff;" vertex="1" parent="1">
                    <mxGeometry x="290" y="20" width="660" height="960" as="geometry"/>
                </mxCell>
                <mxCell id="4" value="Natural" style="shape=umlActor;verticalLabelPosition=bottom;verticalAlign=top;html=1;outlineConnect=0;fillColor=#f8cecc;strokeColor=#b85450;gradientColor=#ea6b66;" vertex="1" parent="1">
                    <mxGeometry x="60" y="1010" width="30" height="60" as="geometry"/>
                </mxCell>
                <mxCell id="5" value="Juridica" style="shape=umlActor;verticalLabelPosition=bottom;verticalAlign=top;html=1;outlineConnect=0;fillColor=#f8cecc;strokeColor=#b85450;gradientColor=#ea6b66;" vertex="1" parent="1">
                    <mxGeometry x="190" y="1010" width="30" height="60" as="geometry"/>
                </mxCell>
                <mxCell id="6" value="Empresa" style="shape=umlActor;verticalLabelPosition=bottom;verticalAlign=top;html=1;fillColor=#d5e8d4;strokeColor=#82b366;gradientColor=#97d077;" vertex="1" parent="1">
                    <mxGeometry x="1040" y="910" width="30" height="60" as="geometry"/>
                </mxCell>
                <mxCell id="7" style="edgeStyle=none;html=1;exitX=1;exitY=0.3333333333333333;exitDx=0;exitDy=0;exitPerimeter=0;entryX=0;entryY=1;entryDx=0;entryDy=0;entryPerimeter=0;endArrow=blockThin;endFill=1;" edge="1" parent="1" source="8" target="6">
                    <mxGeometry relative="1" as="geometry"/>
                </mxCell>
                <mxCell id="8" value="Supervis@r" style="shape=umlActor;verticalLabelPosition=bottom;verticalAlign=top;html=1;fillColor=#d5e8d4;strokeColor=#82b366;gradientColor=#97d077;" vertex="1" parent="1">
                    <mxGeometry x="960" y="970" width="30" height="60" as="geometry"/>
                </mxCell>
                <mxCell id="9" value="Datafast" style="shape=umlActor;verticalLabelPosition=bottom;verticalAlign=top;html=1;fillColor=#fff2cc;gradientColor=#ffd966;strokeColor=#d6b656;" vertex="1" parent="1">
                    <mxGeometry x="1020" y="90" width="30" height="60" as="geometry"/>
                </mxCell>
                <mxCell id="10" value="Tarjeta de Credito" style="shape=umlActor;verticalLabelPosition=bottom;verticalAlign=top;html=1;fillColor=#fff2cc;gradientColor=#ffd966;strokeColor=#d6b656;" vertex="1" parent="1">
                    <mxGeometry x="1010" y="230" width="30" height="60" as="geometry"/>
                </mxCell>
                <mxCell id="11" style="edgeStyle=none;html=1;exitX=0;exitY=0;exitDx=0;exitDy=0;entryX=1;entryY=0.3333333333333333;entryDx=0;entryDy=0;entryPerimeter=0;endArrow=baseDash;endFill=0;" edge="1" parent="1" source="13" target="2">
                    <mxGeometry relative="1" as="geometry"/>
                </mxCell>
                <mxCell id="12" style="edgeStyle=none;html=1;exitX=1;exitY=1;exitDx=0;exitDy=0;entryX=0;entryY=0.3333333333333333;entryDx=0;entryDy=0;entryPerimeter=0;endArrow=baseDash;endFill=0;" edge="1" parent="1" source="13" target="6">
                    <mxGeometry relative="1" as="geometry"/>
                </mxCell>
                <mxCell id="13" value="Comprar productos" style="ellipse;whiteSpace=wrap;html=1;" vertex="1" parent="1">
                    <mxGeometry x="340" y="792" width="140" height="70" as="geometry"/>
                </mxCell>
                <mxCell id="14" value="Pagar la Compra" style="ellipse;whiteSpace=wrap;html=1;" vertex="1" parent="1">
                    <mxGeometry x="320" y="480" width="140" height="70" as="geometry"/>
                </mxCell>
                <mxCell id="15" value="Facturar la compra" style="ellipse;whiteSpace=wrap;html=1;" vertex="1" parent="1">
                    <mxGeometry x="330" y="240" width="140" height="70" as="geometry"/>
                </mxCell>
                <mxCell id="16" value="Pagar en efectivo" style="ellipse;whiteSpace=wrap;html=1;" vertex="1" parent="1">
                    <mxGeometry x="670" y="320" width="140" height="70" as="geometry"/>
                </mxCell>
                <mxCell id="17" style="edgeStyle=none;html=1;exitX=1;exitY=0.5;exitDx=0;exitDy=0;entryX=0;entryY=0.3333333333333333;entryDx=0;entryDy=0;entryPerimeter=0;endArrow=baseDash;endFill=0;" edge="1" parent="1" source="19" target="9">
                    <mxGeometry relative="1" as="geometry"/>
                </mxCell>
                <mxCell id="18" style="edgeStyle=none;html=1;exitX=1;exitY=1;exitDx=0;exitDy=0;endArrow=baseDash;endFill=0;entryX=0;entryY=0.3333333333333333;entryDx=0;entryDy=0;entryPerimeter=0;" edge="1" parent="1" source="19" target="10">
                    <mxGeometry relative="1" as="geometry">
                        <mxPoint x="1000" y="250" as="targetPoint"/>
                    </mxGeometry>
                </mxCell>
                <mxCell id="19" value="Pagar con tarjeta de credito" style="ellipse;whiteSpace=wrap;html=1;" vertex="1" parent="1">
                    <mxGeometry x="670" y="140" width="140" height="70" as="geometry"/>
                </mxCell>
                <mxCell id="20" value="Comprobante" style="ellipse;whiteSpace=wrap;html=1;" vertex="1" parent="1">
                    <mxGeometry x="660" y="550" width="140" height="70" as="geometry"/>
                </mxCell>
                <mxCell id="21" style="edgeStyle=none;html=1;exitX=0.5;exitY=0;exitDx=0;exitDy=0;entryX=1;entryY=1;entryDx=0;entryDy=0;endArrow=block;endFill=1;" edge="1" parent="1" source="22" target="20">
                    <mxGeometry relative="1" as="geometry"/>
                </mxCell>
                <mxCell id="22" value="Nota de venta" style="ellipse;whiteSpace=wrap;html=1;" vertex="1" parent="1">
                    <mxGeometry x="760" y="720" width="110" height="60" as="geometry"/>
                </mxCell>
                <mxCell id="23" style="edgeStyle=none;html=1;exitX=0.5;exitY=0;exitDx=0;exitDy=0;entryX=0;entryY=1;entryDx=0;entryDy=0;endArrow=block;endFill=1;" edge="1" parent="1" source="24" target="20">
                    <mxGeometry relative="1" as="geometry"/>
                </mxCell>
                <mxCell id="24" value="Factura" style="ellipse;whiteSpace=wrap;html=1;" vertex="1" parent="1">
                    <mxGeometry x="570" y="720" width="110" height="60" as="geometry"/>
                </mxCell>
                <mxCell id="25" value="&amp;lt;&amp;lt;include&amp;gt;&amp;gt;" style="html=1;verticalAlign=bottom;labelBackgroundColor=none;endArrow=open;endFill=0;dashed=1;entryX=1;entryY=1;entryDx=0;entryDy=0;" edge="1" parent="1" source="20" target="15">
                    <mxGeometry width="160" relative="1" as="geometry">
                        <mxPoint x="550" y="670" as="sourcePoint"/>
                        <mxPoint x="710" y="670" as="targetPoint"/>
                    </mxGeometry>
                </mxCell>
                <mxCell id="26" value="" style="endArrow=none;html=1;edgeStyle=orthogonalEdgeStyle;entryX=0.5;entryY=0;entryDx=0;entryDy=0;entryPerimeter=0;" edge="1" parent="1" target="4">
                    <mxGeometry relative="1" as="geometry">
                        <mxPoint x="120" y="840" as="sourcePoint"/>
                        <mxPoint x="470" y="880" as="targetPoint"/>
                        <Array as="points">
                            <mxPoint x="80" y="840"/>
                            <mxPoint x="80" y="925"/>
                            <mxPoint x="75" y="925"/>
                        </Array>
                    </mxGeometry>
                </mxCell>
                <mxCell id="27" value="parent" style="edgeLabel;resizable=0;html=1;align=left;verticalAlign=bottom;" connectable="0" vertex="1" parent="26">
                    <mxGeometry x="-1" relative="1" as="geometry">
                        <mxPoint x="-80" y="10" as="offset"/>
                    </mxGeometry>
                </mxCell>
                <mxCell id="28" value="child" style="edgeLabel;resizable=0;html=1;align=right;verticalAlign=bottom;" connectable="0" vertex="1" parent="26">
                    <mxGeometry x="1" relative="1" as="geometry">
                        <mxPoint x="-15" as="offset"/>
                    </mxGeometry>
                </mxCell>
                <mxCell id="29" value="" style="endArrow=none;html=1;edgeStyle=orthogonalEdgeStyle;exitX=1;exitY=1;exitDx=0;exitDy=0;exitPerimeter=0;entryX=0.5;entryY=0;entryDx=0;entryDy=0;entryPerimeter=0;" edge="1" parent="1" source="2" target="5">
                    <mxGeometry relative="1" as="geometry">
                        <mxPoint x="230" y="880" as="sourcePoint"/>
                        <mxPoint x="390" y="880" as="targetPoint"/>
                        <Array as="points">
                            <mxPoint x="190" y="840"/>
                            <mxPoint x="190" y="925"/>
                            <mxPoint x="205" y="925"/>
                        </Array>
                    </mxGeometry>
                </mxCell>
                <mxCell id="30" value="parent" style="edgeLabel;resizable=0;html=1;align=left;verticalAlign=bottom;" connectable="0" vertex="1" parent="29">
                    <mxGeometry x="-1" relative="1" as="geometry">
                        <mxPoint x="50" y="10" as="offset"/>
                    </mxGeometry>
                </mxCell>
                <mxCell id="31" value="child" style="edgeLabel;resizable=0;html=1;align=right;verticalAlign=bottom;" connectable="0" vertex="1" parent="29">
                    <mxGeometry x="1" relative="1" as="geometry">
                        <mxPoint x="-15" as="offset"/>
                    </mxGeometry>
                </mxCell>
                <mxCell id="32" value="Cancelar la compra" style="ellipse;whiteSpace=wrap;html=1;" vertex="1" parent="1">
                    <mxGeometry x="650" y="800" width="100" height="62" as="geometry"/>
                </mxCell>
                <mxCell id="33" value="&amp;lt;&amp;lt;extend&amp;gt;&amp;gt;" style="html=1;verticalAlign=bottom;labelBackgroundColor=none;endArrow=open;endFill=0;dashed=1;exitX=0;exitY=0.5;exitDx=0;exitDy=0;entryX=0.5;entryY=1;entryDx=0;entryDy=0;" edge="1" parent="1" source="16" target="44">
                    <mxGeometry width="160" relative="1" as="geometry">
                        <mxPoint x="570" y="400" as="sourcePoint"/>
                        <mxPoint x="730" y="400" as="targetPoint"/>
                    </mxGeometry>
                </mxCell>
                <mxCell id="34" value="&amp;lt;&amp;lt;extend&amp;gt;&amp;gt;" style="html=1;verticalAlign=bottom;labelBackgroundColor=none;endArrow=open;endFill=0;dashed=1;exitX=0;exitY=0.5;exitDx=0;exitDy=0;entryX=0.5;entryY=0;entryDx=0;entryDy=0;" edge="1" parent="1" source="19" target="44">
                    <mxGeometry width="160" relative="1" as="geometry">
                        <mxPoint x="570" y="400" as="sourcePoint"/>
                        <mxPoint x="730" y="400" as="targetPoint"/>
                    </mxGeometry>
                </mxCell>
                <mxCell id="35" value="&amp;lt;&amp;lt;include&amp;gt;&amp;gt;" style="html=1;verticalAlign=bottom;labelBackgroundColor=none;endArrow=open;endFill=0;dashed=1;entryX=0.5;entryY=0;entryDx=0;entryDy=0;exitX=0.5;exitY=1;exitDx=0;exitDy=0;" edge="1" parent="1" source="14" target="13">
                    <mxGeometry width="160" relative="1" as="geometry">
                        <mxPoint x="520" y="720" as="sourcePoint"/>
                        <mxPoint x="680" y="720" as="targetPoint"/>
                    </mxGeometry>
                </mxCell>
                <mxCell id="36" value="&amp;lt;&amp;lt;include&amp;gt;&amp;gt;" style="html=1;verticalAlign=bottom;labelBackgroundColor=none;endArrow=open;endFill=0;dashed=1;exitX=0.5;exitY=1;exitDx=0;exitDy=0;entryX=0.5;entryY=0;entryDx=0;entryDy=0;" edge="1" parent="1" source="15" target="14">
                    <mxGeometry width="160" relative="1" as="geometry">
                        <mxPoint x="520" y="410" as="sourcePoint"/>
                        <mxPoint x="680" y="410" as="targetPoint"/>
                    </mxGeometry>
                </mxCell>
                <mxCell id="37" value="GeneralizaciÃ³n" style="text;strokeColor=none;align=center;fillColor=none;html=1;verticalAlign=middle;whiteSpace=wrap;rounded=0;" vertex="1" parent="1">
                    <mxGeometry x="585" y="650" width="60" height="30" as="geometry"/>
                </mxCell>
                <mxCell id="38" value="GeneralizaciÃ³n" style="text;strokeColor=none;align=center;fillColor=none;html=1;verticalAlign=middle;whiteSpace=wrap;rounded=0;" vertex="1" parent="1">
                    <mxGeometry x="810" y="650" width="60" height="30" as="geometry"/>
                </mxCell>
                <mxCell id="39" value="Caso concreto" style="text;strokeColor=none;align=center;fillColor=none;html=1;verticalAlign=middle;whiteSpace=wrap;rounded=0;" vertex="1" parent="1">
                    <mxGeometry x="660" y="620" width="60" height="30" as="geometry"/>
                </mxCell>
                <mxCell id="40" value="Caso&amp;nbsp;&lt;br&gt;Especifico" style="text;strokeColor=none;align=center;fillColor=none;html=1;verticalAlign=middle;whiteSpace=wrap;rounded=0;" vertex="1" parent="1">
                    <mxGeometry x="630" y="690" width="60" height="30" as="geometry"/>
                </mxCell>
                <mxCell id="41" value="Caso concreto" style="text;strokeColor=none;align=center;fillColor=none;html=1;verticalAlign=middle;whiteSpace=wrap;rounded=0;" vertex="1" parent="1">
                    <mxGeometry x="740" y="620" width="60" height="30" as="geometry"/>
                </mxCell>
                <mxCell id="42" value="Caso&amp;nbsp;&lt;br&gt;Especifico" style="text;strokeColor=none;align=center;fillColor=none;html=1;verticalAlign=middle;whiteSpace=wrap;rounded=0;" vertex="1" parent="1">
                    <mxGeometry x="750" y="690" width="60" height="30" as="geometry"/>
                </mxCell>
                <mxCell id="43" value="&amp;lt;&amp;lt;extend&amp;gt;&amp;gt;" style="html=1;verticalAlign=bottom;labelBackgroundColor=none;endArrow=open;endFill=0;dashed=1;exitX=1;exitY=0.5;exitDx=0;exitDy=0;entryX=0;entryY=0.5;entryDx=0;entryDy=0;" edge="1" parent="1" source="13" target="32">
                    <mxGeometry width="160" relative="1" as="geometry">
                        <mxPoint x="440" y="710" as="sourcePoint"/>
                        <mxPoint x="600" y="710" as="targetPoint"/>
                    </mxGeometry>
                </mxCell>
                <mxCell id="44" value="Pagar la compra" style="ellipse;whiteSpace=wrap;html=1;" vertex="1" parent="1">
                    <mxGeometry x="550" y="220" width="140" height="70" as="geometry"/>
                </mxCell>
                <mxCell id="45" value="&amp;lt;&amp;lt;include&amp;gt;&amp;gt;" style="html=1;verticalAlign=bottom;labelBackgroundColor=none;endArrow=open;endFill=0;dashed=1;entryX=1;entryY=0.5;entryDx=0;entryDy=0;exitX=0;exitY=0.5;exitDx=0;exitDy=0;" edge="1" parent="1" source="44" target="15">
                    <mxGeometry width="160" relative="1" as="geometry">
                        <mxPoint x="480" y="260" as="sourcePoint"/>
                        <mxPoint x="640" y="260" as="targetPoint"/>
                    </mxGeometry>
                </mxCell>
                <mxCell id="47" style="edgeStyle=none;html=1;exitX=0;exitY=0.3333333333333333;exitDx=0;exitDy=0;exitPerimeter=0;entryX=1;entryY=1;entryDx=0;entryDy=0;entryPerimeter=0;" edge="1" parent="1" source="46" target="6">
                    <mxGeometry relative="1" as="geometry"/>
                </mxCell>
                <mxCell id="46" value="Cajero" style="shape=umlActor;verticalLabelPosition=bottom;verticalAlign=top;html=1;fillColor=#d5e8d4;gradientColor=#97d077;strokeColor=#82b366;" vertex="1" parent="1">
                    <mxGeometry x="1110" y="970" width="30" height="60" as="geometry"/>
                </mxCell>
            </root>
        </mxGraphModel>
    </diagram>
</mxfile>